<svg xmlns="http://www.w3.org/2000/svg" viewBox="0 0 30.95 24.51"><defs><style>.cls-1{fill:#95449a}</style></defs><g id="Layer_1" data-name="Layer 1"><path class="cls-1" d="M21.65 23.86a.43.43 0 0 0 .61 0L36.33 9.79a1.49 1.49 0 0 0-.35 0H8a1.48 1.48 0 0 0-.41.07z" transform="translate(-6.52 -9.75)"/><path class="cls-1" d="M23.33 24.92a1.94 1.94 0 0 1-2.73 0l-14-14a1.49 1.49 0 0 0 0 .35v21.48a1.5 1.5 0 0 0 1.4 1.5h28a1.5 1.5 0 0 0 1.5-1.5v-21.5a1.48 1.48 0 0 0-.06-.41z" transform="translate(-6.52 -9.75)"/></g></svg>