<svg version="1.1" id="Layer_1" xmlns="http://www.w3.org/2000/svg" x="0" y="0" viewBox="0 0 1041.3 554.2" xml:space="preserve"><style>.st2{fill:#95449a}.st3{fill:#3f3d56}.st4{fill:#65617d}.st6{opacity:.1;enable-background:new}.st7{fill:#939}.st8{fill:#a476a8}.st9{fill:#fbbebe}</style><path d="M961.5 438.2c-1.2 2.5-2.3 5-3.5 7.4-1.8 3.8-3.6 7.5-5.3 11.1-.8 1.6-1.6 3.2-2.3 4.8-8.6 17.6-16.6 33.1-23.5 45.9-12.6 23.6-37.1 38.4-63.8 38.7l-151.6 1.7h-1.6l-13 .1-11.1.1-34.1.4h-1.4l-17.4.2h-.5l-107 1.2-95.5 1-11.1.1-69 .8h-.1l-44.8.5h-.5l-141.5 1.5-42.3.5c-9 .1-18-1.2-26.7-3.8-15-4.5-28.6-13.1-39.1-24.8-18.2-20-31.4-43.4-40.3-68.8-1.3-3.7-2.5-7.4-3.6-11.1-30.8-104.2 6.8-238.5 74.4-328.4 2.8-3.8 5.7-7.4 8.6-11l.1-.1c20.8-25.5 44.1-46.8 68.9-62 44-26.9 92.8-34.5 140.7-11.9 40.6 19.1 78.5 28.1 115.2 30.6 3.7.2 7.4.4 11.1.5C514.1 65.9 593 35.6 685.8 16c3.7-.8 7.4-1.6 11.1-2.3C763 .5 836.4-6.4 923.6 8.2c9.1 1.5 18 3.6 26.8 6.4 3.8 1.2 7.6 2.6 11.1 4 41.6 16.9 64.3 48.2 74 87.5.9 3.6 1.7 7.3 2.4 11.1 17.1 94.3-33.1 228.1-76.4 321z" opacity=".1" fill="#95449a"/><g opacity=".1"><path class="st2" d="M162.9 44.1v509.6l-42.3.5c-9 .1-18-1.2-26.7-3.8V106.1h.1c20.8-25.6 44.1-46.9 68.9-62z"/><path class="st2" d="M1037.9 117.2H85.3c2.8-3.8 5.7-7.4 8.6-11v-.1h941.6c.9 3.6 1.7 7.3 2.4 11.1z"/><path class="st2" d="M961.5 18.6v427H958c-1.8 3.8-3.6 7.5-5.3 11.1-.8 1.6-1.6 3.2-2.3 4.8V14.6c3.8 1.2 7.5 2.5 11.1 4zm-264.6-4.9V548l-11.1.1V15.9c3.6-.7 7.3-1.5 11.1-2.2zm-267 49.5v487.6l-11.1.1V62.7c3.7.2 7.4.4 11.1.5z"/><path class="st2" d="M958 445.6c-1.8 3.8-3.6 7.5-5.3 11.1H14.5c-1.3-3.7-2.5-7.4-3.6-11.1H958z"/></g><path class="st3" d="M211.6 265.8h19v57.7h-19zm511.3-3h19v61h-19z"/><path class="st4" d="M863.1 533.7v13L711.2 548l-1.6.1-57.8.5h-1.4l-17.5.2h-.5l-107 1-175.6 1.6h-.2l-44.6.4h-.5l-198.4 1.9v-15l46.7-28.1 93.6-.7h2.6l2-.1 45-.3 2-.1h2.6l14.4-.1h.4l35.5-.3h.3l277.4-2.4h7.5l5.2-.1 37.6-.3h4.8l11.8-.1h2.3l3.1-.1h9.7l15.5-.2h6.1l74.7-.7z"/><path opacity=".2" d="M863.1 533.7v13L711.2 548l-1.6.1-57.8.5h-1.4l-17.5.2h-.5l-107 1-175.6 1.6h-.2l-44.6.4h-.5l-198.4 1.9v-15l46.7-28.1 93.6-.7h2.6l2-.1 45-.3 2-.1h2.6l14.4-.1h.4l35.5-.3h.3l277.4-2.4h7.5l5.2-.1 37.6-.3h4.8l11.8-.1h2.3l3.1-.1h9.7l15.5-.2h6.1l74.7-.7z"/><path class="st3" d="M296.1 483.7v24.5c0 2.4-1.4 4.5-3.5 5.5-.8.4-1.6.6-2.5.6l-34.9.7c-.9 0-1.9-.2-2.7-.6-2.2-1-3.6-3.2-3.6-5.6v-25.2h47.2z"/><path class="st6" d="M296.1 483.7v24.5c0 2.4-1.4 4.5-3.5 5.5-.8.4-1.6.6-2.5.6l-34.9.7c-.9 0-1.9-.2-2.7-.6-2.2-1-3.6-3.2-3.6-5.6v-25.2h47.2z"/><path class="st3" d="M298.1 483.7v24.5c0 2.4-1.4 4.5-3.5 5.5-.8.4-1.6.6-2.5.6l-34.9.7c-.9 0-1.9-.2-2.7-.6-2.2-1-3.6-3.2-3.6-5.6v-25.2h47.2zm382.8 0h47.2v31.5h-47.2z"/><path class="st6" d="M680.9 483.7h47.2v31.5h-47.2z"/><path class="st3" d="M678.9 483.7h47.2v31.5h-47.2z"/><path class="st6" d="M230.6 265.8v5.7l-19-.4v-5.3z"/><path class="st4" d="M355.7 104.4l-22.8 164c-.3 2.2-2.2 3.8-4.4 3.7l-182.8-4.7-3.5-.1c-2.4-.1-4.3-2-4.2-4.4v-.5l25.6-171.7c.3-2.2 2.3-3.8 4.5-3.6l183.5 12.4c2.4.1 4.2 2.2 4 4.5.1.2.1.3.1.4z"/><path class="st7" d="M175.9 99.2l-19.3 151.3 168 5.3 20.7-146z"/><path class="st4" d="M389.9 96.8h194c2.9 0 5.3 2.4 5.3 5.3v162.7c0 2.9-2.4 5.3-5.3 5.3h-194c-2.9 0-5.3-2.4-5.3-5.3V102.2c0-3 2.4-5.4 5.3-5.4z"/><path class="st7" d="M394.3 108.5h186v144.3h-186z"/><path class="st6" d="M741.9 262.8v3.8l-19 .4v-4.2z"/><path class="st4" d="M827.7 259.6c.1 1.7-1.2 3.2-2.9 3.3h-.1l-187.2 3.9c-1.6 0-3-1.2-3.1-2.8L618.2 96.7c-.2-1.7 1.1-3.2 2.8-3.4h.1l185.8-9.2 2-.1c1.7-.1 3.1 1.2 3.2 2.8l15.6 172.8z"/><path class="st7" d="M628.9 103.2l169.7-8.4 14.3 152-168.3 4z"/><path class="st6" d="M827.7 259.6c.1 1.7-1.2 3.2-2.9 3.3h-.1L806.9 84.1l2-.1c1.7-.1 3.1 1.2 3.2 2.8l15.6 172.8zM168.2 87.1l-22.6 180.3-3.5-.1c-2.4-.1-4.3-2-4.2-4.4v-.5l25.6-171.7c.5-2.2 2.5-3.8 4.7-3.6zm43.4 219.3h19v17.1h-19zm86.5 177.2v5l-47.2 1.3v-6.3z"/><path class="st4" d="M381.4 312.4v168.2c0 2.1-1.7 3.9-3.9 4l-191.6 5.1c-2.2 0-3.9-1.8-4-4V312.4c0-2.2 1.8-3.9 4-4h191.6c2.1 0 3.8 1.8 3.9 4z"/><path class="st6" d="M185.9 308.4v181.2c-2.2 0-3.9-1.8-4-4V312.4c0-2.2 1.7-4 4-4z"/><path class="st8" d="M194.6 319.1h177.5v148.3l-177.5 4z"/><path class="st6" d="M722.9 306.4h19v17.4h-19zm3.2 177.2v6.5l-47.2-1.3v-5.2z"/><path class="st4" d="M788.3 312.4v173.3c0 2.2-1.8 4-4 4l-191.7-5.1c-2.1-.1-3.8-1.8-3.8-4V312.4c0-2.2 1.8-3.9 3.9-4h191.6c2.2 0 4 1.8 4 4z"/><path class="st6" d="M788.3 312.4v173.3c0 2.2-1.8 4-4 4V308.4c2.2 0 4 1.8 4 4z"/><path class="st8" d="M775.6 319.1H598.1v148.3l177.5 4z"/><path class="st4" d="M583.8 312.4v168.2c0 2.1-1.7 3.9-3.8 4l-191.6 5.1c-2.2 0-4-1.8-4-4V312.4c0-2.2 1.8-3.9 4-4H580c2.1 0 3.8 1.8 3.8 4z"/><path class="st8" d="M397.1 319.1h177.5v148.3l-177.5 4z"/><path class="st6" d="M863.1 533.7v13L711.2 548l-1.6.1-57.8.5h-1.4l-17.5.2h-.5l-107 1-175.6 1.6h-.2l-44.6.4h-.5l-198.4 1.9v-15l202.5-1.4h.5l41-.3h.2l283-1.8h1l4.8-.1h1.4l74.5-.5h5.4z"/><circle class="st9" cx="487.3" cy="272.2" r="51.3"/><linearGradient id="SVGID_1_" gradientUnits="userSpaceOnUse" x1="597.785" y1="-171.44" x2="597.785" y2="206.017" gradientTransform="matrix(1 0 0 -1 -79.34 381.09)"><stop offset="0" stop-color="gray" stop-opacity=".25"/><stop offset=".54" stop-color="gray" stop-opacity=".12"/><stop offset="1" stop-color="gray" stop-opacity=".1"/></linearGradient><path d="M304.4 552.2c0-.1.1-.2.1-.3 1-3.6 2.8-9.7 4.1-14.5.2-.6.3-1.2.5-1.8 1.5-5.5 4.3-18.3 5.9-26.3.6-2.8 1-5 1.1-6.1.2-1.7 3.2-8.9 6.6-17.2 2.4-5.8 5-12.2 6.9-17.6 1.3-3.2 2.2-6.5 2.9-9.8.1-.7.1-1.4 0-2.1-.3-1.1-.5-2.3-.5-3.5-.2-6.2 1.6-16 4.5-20.1 3.5-5 6-23.7 6-23.7s5.2.8 6-3.5c.1-.5.1-.9.1-1.4 0-.4 0-.7-.1-1.1-.9-6.2 14.7-12.9 23.5-14.3 1-.2 2-.3 3-.3 2.1-.2 4.2-.7 6.2-1.4.9-.3 1.9-.6 3-1 3.7-1.2 8.1-2.9 12.8-4.7 17.6-6.8 38.8-16 38.8-16 .2-.7.3-1.4.5-2.1 2.1-8.6 8.2-15.6 16.3-18.9v-2c0-3.5-.2-7-.3-10.5 0-.7-.1-1.4-.1-2.1v-1.1c0-.7-.1-1.4-.1-2.1l-.2-.1c-1.5-1.2-2.9-2.6-3.9-4.2-.6-.9-1.1-2-1.4-3-1.2-3.4-1.5-7.2-2.4-10.8l-.2-.7c-1.1-3.6-2.4-7.1-4-10.6-2.2-5.4-3.9-11-5.6-16.6-1-3.4-2.1-6.8-3.1-10.3l-1.6-5.2c-.3-1-.6-2-.8-3-.1-.5-.2-.9-.3-1.4-.3-1.5-.2-3.1.2-4.6.4-1 .8-2 1.3-3 .2-.4.4-.9.5-1.4 0-.1.1-.2.1-.3.1-.4.1-.7.1-1.1 0-1.3-.2-2.6-.5-3.9v-.3c-.2-1-.3-2-.4-3-.4-5.4.9-10.8 3.5-15.6l.2-.4c.6-1 1.2-1.9 1.8-2.8.3-.4.6-.8 1-1.2-1.4 1.3-3.7.8-5-.7-.2-.2-.4-.5-.5-.8-.1-.1-.2-.3-.2-.5 0-.1-.1-.2-.1-.4-.7-2.5.5-5.1 2.1-7 1.6-1.9 3.5-3.5 5.7-4.7.1-.1.3-.1.4-.2.8-.4 1.7-.8 2.6-1.1.5-.2 1.1-.3 1.6-.4l-3.7-.3-1.5-.1c1.5-6.1 6.8-10.5 13-10.9h1.1c.5 0 1.1.1 1.6.1-1.7-.7-2.8-2.5-2.7-4.3 2.6 2 5.9 3.1 9.2 3.1h.4c-.2-1.1-.3-2.2-.3-3.3-.1-1.5-.1-3 0-4.5 1.8 1.7 4.3 2.5 6.8 2.3l-2.1-2.9c1.9 1.5 4.2 2.2 6.6 2h.5c.4 0 .8-.1 1.2-.2h.1c-.2-.2-.4-.5-.5-.8l-.1-.1c-.4-.7-.8-1.4-1-2.1-.1-.3-.2-.6-.2-.9-.4-1.8-.3-3.7.5-5.5 3.2 2.7 6.8 6.4 11 3.6s4.4-7.9 11-7.4c3.7.4 6.9 2.7 8.4 6.1 1.9-2.2 5-2.9 7.7-1.8 2.6 1.2 4.2 4 3.9 6.9 2.8-.7 5.7-1.4 8.3-.3 2.6 1 4.3 4.4 2.8 6.7 0 .1-.1.1-.1.2-1.2 1.6-3.9 2.5-3.7 4.5l.4.3 1.3.9c5.1 3.7 10.1 7.5 14.9 11.6 2.5 2.1 5.1 4.6 5.3 7.8 0 .8-.1 1.6-.2 2.4-.2.8-.4 1.6-.5 2.3-.4 2-.5 4-.3 6l.3 1.8c1.5 7.7 7.7 14.1 8.3 22v.6c0 .8 0 1.7-.1 2.5-.5 4.8-2.7 9.4-4.5 14-.1.3-.2.6-.3.8-3.5 9-5.5 18.6-7 28.2-.5 3.4-1.2 6.8-2 10.1-.9 3.8-2.7 7.4-5.1 10.4-1 1.2-2.1 2.2-3.4 3-.8.5-1.7 1-2.7 1.4v.1l.3 1.8c.1.3.1.6.2 1v.1c.8 4.7 1.8 9.4 2.8 13.8l.5 2.2c12.6 4.5 14.1 13.9 14.2 17.4v1.4s19 .5 26.5 6c1.4 1 2.9 1.7 4.5 2.3 3 1.1 6.1 2.1 9.2 2.9 1.6.4 3.3.8 5 1.2 3 .7 6.2 1.4 9.2 2 8.2 1.7 15.9 3 19.8 4 9.3 2.4 30.7 22.8 30.7 22.8s2.5 20.6 5 23.7 7 13.6 7 13.6l16.5 29.4 7 12.4h4.5c.6 0 1.8.9 3.2 2.1 1.2 1.1 2.5 2.4 3.7 3.6l1.9 2 1.2 1.3s7.3.2 9.2 5.9c5.9-.2 13.2.2 18.3 2.5.7.3 1.4.7 2 1.1 2.1 1.2 3.6 3.3 4.1 5.7.1.5.2 1 .2 1.4v1.7c-.4 7.6-5.3 13.9-9.8 18.1l.3.6s-.2.4-.4 1l-.3.6c-.6 1.3-1.5 3.2-2.8 5.4-2.6 4.8-5.8 9.2-9.6 13.2l-.3.3-57.7.5-.2-.2-11.2-13.4-5.6-6.6-.2-.2-.2 1.6-.5 5.3-1.3 12.8-.1.6v.2l-.2 1.5.1-1.5h-.3l-107 1-175.6 1.9v.8h-.1v-.8l-44.8.5h-.1z" fill="url(#SVGID_1_)"/><path class="st9" d="M538.6 377.2s-99.5 12-90 0c3.4-4.3 4.4-17.2 4.2-31.8-.1-4.5-.2-9.1-.5-13.6-1.1-22-3.8-43.5-3.8-43.5s87-41 77-8.5c-4 13.1-2.7 31.6.3 48.9.9 5 1.9 10 3 14.7 2.8 11.3 6 22.6 9.8 33.8z"/><path class="st6" d="M538.6 377.2s-99.5 12-90 0c3.4-4.3 4.4-17.2 4.2-31.8 15.2-6.5 34.5-1.7 34.5-1.7 20.3-4 33.4-3.3 41.7-.4 2.6 11.4 5.8 22.7 9.6 33.9z"/><path class="st7" d="M349.7 552.5v-.8l175.6-1.9 107-1h.3l-.1 1.5.2-1.5h.2v-.2l1.4-13.4.5-5.1.2-1.6.1-1.3 6.2-20.6 6.2-20.6 5.2-17.3 7.9-26.5s-4.5-10.5-7-13.5-5-23.5-5-23.5-21.3-20.3-30.7-22.7c-3.9-1-11.6-2.3-19.8-4-3.1-.6-6.2-1.3-9.2-2-1.7-.4-3.4-.8-5-1.2-3.1-.8-6.2-1.7-9.2-2.9-1.6-.6-3.1-1.3-4.5-2.3-7.3-5.4-25.8-6-26.5-6v-1.4c0-.4 0-.9-.1-1.4 0-.2 0-.3-.1-.5-.1-.4-.1-.7-.2-1.1 0-.2-.1-.4-.1-.5-.3-1.2-.7-2.4-1.2-3.5-.1-.2-.2-.3-.2-.5-.5-.9-1.1-1.8-1.7-2.6-.1-.2-.3-.3-.4-.5-.8-1-1.7-1.9-2.7-2.6-.3-.2-.5-.4-.8-.6-.2-.1-.3-.3-.5-.4l-.9-.6-.8-.5c-.7-.4-1.5-.8-2.3-1.2-.3-.1-.5-.2-.8-.3s-.7-.3-1.1-.4h-.1l-.7-.3c-.6-.2-1.2-.4-1.8-.5l-.9-.2-1-.2-1-.2c-1-.2-2.1-.4-3.2-.5l-1.1-.1-1.2-.1-1.2-.1-1.7-.1-2-.1c-8.8 0-17.6.9-26.2 2.8-6-1.3-12.1-1.9-18.3-1.7h-.9l-1 .1h-.6l-1.3.1c-.4 0-.9.1-1.3.2s-.9.1-1.3.2l-.7.1c-.7.1-1.3.2-2 .4-.2 0-.4.1-.7.2-.9.2-1.7.4-2.6.7-.4.1-.9.3-1.3.4-.2.1-.4.1-.6.2l-.6.2-.6.2-.8.3c-.4.2-.8.3-1.1.5l-.6.3-.6.3c-2.3 1.2-4.4 2.6-6.2 4.4l-.5.5-.5.5-.5.5c-.7.7-1.3 1.5-1.8 2.2-.2.2-.3.4-.5.6-.6.9-1.2 1.9-1.7 2.9-.1.2-.2.5-.4.7-.8 1.7-1.5 3.4-2 5.2-.2.7-.4 1.3-.5 2-.2 1-21.2 9.3-38.7 16.1-4.7 1.8-9.1 3.4-12.8 4.7-1.1.4-2.1.7-3 1-2 .7-4.1 1.2-6.2 1.4-1 0-2 .1-3 .3-8.1 1.3-21.9 7-23.4 12.7-.1.5-.2.9-.1 1.4v.1c1 7-6 6-6 6s-2.5 18.5-6 23.5c-2.5 3.6-4.3 11.6-4.5 17.7-.1 1.9 0 3.8.4 5.6v.1c.4 1.3-.6 5-2.2 9.7-1.8 5.2-4.4 11.5-6.8 17.6-3.7 9.1-7.3 17.4-7.5 19.2-.1.8-.4 2.3-.7 4.1-1.5 7.6-4.7 22.1-6.3 28-1.2 4.4-2.9 10.4-4.1 14.5 0 .1-.1.2-.1.3l44.8-.4-.3.8z"/><path class="st6" d="M366.1 434.7s57 29.5 77.5 26l-77.5-26zm116-12s55.5 18 74 20.5-74-20.5-74-20.5zm61.6-58c-29 5.3-83.6 4.2-107.2 3.4 8.7-31 50.8-20.5 50.8-20.5 52.2-10.4 56.2 11.3 56.4 17.1z"/><path class="st2" d="M543.7 362.7c-29 5.3-83.6 4.2-107.2 3.4 8.7-31 50.8-20.5 50.8-20.5 52.2-10.4 56.2 11.3 56.4 17.1z"/><path class="st9" d="M697.6 499.4s34.2-5.2 34.8 9.8c.7 15-17.4 25.5-17.4 25.5l-17.4-35.3z"/><path class="st6" d="M525.9 328.5c-1.5.7-3 1.2-4.5 1.7-10.8 3.7-21.6 7.5-33 8.8-11.3 1.4-23.3.2-33.2-5.5-1-.6-2-1.2-3-2-1.1-22-3.8-43.5-3.8-43.5s87-41 77-8.5c-3.8 13.3-2.5 31.7.5 49z"/><path class="st3" d="M472.5 190.9c.3.5 0 1.2-.6 1.3-2.5.3-5-.4-7-2l1.1 1.5c.4.6-.1 1.5-.8 1.4-1.3-.1-2.6-.6-3.7-1.3-.6-.4-1.3.1-1.3.7 0 1.7.1 3.4.3 5.1.1.5-.3 1-.8 1-2.4 0-4.8-.7-6.9-1.9-.8-.4-1.6.4-1.2 1.2.1.2.2.4.4.6.4.6 0 1.3-.7 1.4-5.8.3-10.9 4.1-12.8 9.7-.2.5.2 1.1.8 1.2.9.1 1.1 1.3.3 1.7-2.5 1.2-4.8 2.9-6.6 5.1-1.6 2-2.8 4.6-2.1 7 .5 1.6 2.1 2.9 3.7 3 .7.1 1 .8.6 1.4-4.1 6-5.8 13.4-4.5 20.7.5 1.7.6 3.4.5 5.2v.2c-.3 1.6-1.4 3-1.9 4.6-1 2.9 0 6.1.8 9l4.7 15.4c1.7 5.6 3.4 11.1 5.6 16.5 1.6 3.4 2.9 6.9 4 10.5 1.3 4.8 1.3 10.1 4 14.4 1.8 2.7 4.3 4.8 7.2 6.3 9.9 5.7 21.8 6.9 33.2 5.5s22.2-5.1 33-8.8c2.4-.7 4.7-1.7 6.8-3 7.5-4.9 9.1-14.9 10.5-23.6 1.6-9.8 3.6-19.6 7.3-28.8 2.2-5.5 5-11.1 4.5-16.9-.6-7.8-6.8-14.1-8.3-21.8-.5-2.6-.5-5.2.1-7.8.5-1.5.7-3.1.8-4.7-.2-3.2-2.8-5.7-5.3-7.8-5.3-4.4-10.7-8.6-16.3-12.5-.3-.2-.4-.5-.4-.8.2-1.6 2.6-2.4 3.7-3.9 1.7-2.2-.1-5.8-2.7-6.8-2.3-.9-4.8-.5-7.2.1-.5.1-1-.3-1.1-.8-.1-3.2-2.5-5.9-5.8-6.3-1.8-.2-3.6.3-5 1.5-.4.4-1 .3-1.3-.2-1.6-2.9-4.6-4.8-7.9-5.1-6.6-.5-6.8 4.5-11 7.3-3.8 2.5-7-.2-10-2.7-.5-.4-1.3-.2-1.4.5-.9 2-.6 4.4.7 6.5z"/><path class="st2" d="M722.9 529.4s-.9 2.1-2.5 5.2c-2.5 4.7-5.5 9.1-9 13.2l-.3.3h-1.6l-57.7.5h-1.4l-.2-.2-11.2-13.3-4.2-5-.2-.2-.4-.4-.2-.2-.3-.3-8.2-9.7 3-12.5 5.1-21.1.1-.5 1-4 .7-3 2.4-9.8 8.2-33.7 14.5 7.5 15.3 27 8.2 14.5h4.5c.8 0 2.8 1.6 4.8 3.5l2 2c1.8 1.8 3.2 3.4 3.2 3.4s7.3.2 9.2 5.9c.1.3.2.6.2.8.7 2.3 1.5 4.5 2.5 6.6 1.3 2.8 2.9 6 4.5 9.2 3.1 5.8 6.2 11.4 7.3 13.4l.1.2.6.7z"/><path class="st6" d="M637 484.3l-.1 1.4v.1l-.2 2.3-1.3 18.5-1.6 22.3-.5 6.3-1 13.4v.2l-107 1-175.6 1.9v.8h-.1v-1.1l.5-14.4.9-28.1.7-23.8.1-2.4c.2-5.8 5-10.4 10.8-10.2h.6c4.7.4 10.9.9 18.2 1.4l3 .2c42.3 2.9 120.6 6.7 199.5 2 1.7-.1 3.3-.2 5-.3 12.2-.8 24.5-1.8 36.6-3 5.8-.6 11 3.6 11.6 9.4 0 .8 0 1.4-.1 2.1z"/><path class="st3" d="M349.7 552.5v-.8l175.6-1.9 107-1h.3v-.2l1-13.4.4-6 1.6-22.6 1.3-17.9v-.4c.1-.8 0-1.7-.1-2.5v-.1c-.3-1.7-1-3.3-2-4.6-2.2-2.9-5.8-4.4-9.4-4-12.1 1.2-24.3 2.2-36.6 3-1.7.1-3.3.2-5 .3-78.9 4.7-157.2.9-199.5-2l-3-.2c-7.3-.5-13.5-1-18.2-1.4-5.4-.5-10.2 3.2-11.2 8.5-.1.5-.2 1.1-.2 1.6l-.7 22.2-.9 28.1-.4 14.4v.9z"/><path class="st6" d="M637.3 491.3l-1.2 15.3-1.8 22.8-.5 5.7-1 12.8-.1.6v.2l-.2 1.5.1-1.5h-.3l-107 1-175.6 1.9v-.3l.5-14.4 1-28.1.6-18.7c.1-2.2 1.2-4.1 3.1-5.2 1.1-.7 2.5-1 3.8-.9 2.1.2 4.7.4 7.7.6 4.9.4 10.9.8 17.9 1.2 13 .8 29.3 1.7 48 2.4 52 2 122.2 2.7 188.9-3.2 3-.3 6.1-.5 9.1-.8 1.2-.1 2.4.1 3.5.7.3.2.6.3.9.5.9.6 1.6 1.5 2 2.5.1.2.2.4.2.6.4 1 .5 1.9.4 2.8zM298.1 505v3.2c0 2.4-1.4 4.5-3.5 5.5l-40.1.8c-2.2-1-3.6-3.2-3.6-5.6v-3l47.2-.9z"/><path class="st3" d="M298.6 515.6l-52.2 1v-8.7l52.2-1z"/><path class="st6" d="M298.6 515.6l-52.2 1v-8.7l52.2-1z"/><path class="st3" d="M300.6 515.6l-52.2 1v-8.7l52.2-1z"/><path d="M473.6 188.6c-1-1.3-1.6-2.8-1.9-4.3-.2 1.5-.1 3.1.4 4.6.5 0 1-.1 1.5-.3zm-12.7 6.7c-.2-1.2-.3-2.5-.4-3.7v3.7h.4zm81.5 33.4c.1-.9.2-1.8.4-2.6.5-1.5.7-3.1.8-4.7 0-.4-.1-.7-.2-1.1-.2.9-.4 1.8-.6 2.8-.4 1.8-.6 3.7-.4 5.6zm-20.8-30.9l1.1.8c.9-.7 1.8-1.4 2.6-2.2.8-1.1.9-2.4.4-3.6-.1.2-.2.4-.4.6-1.3 1.5-4 2.4-3.7 4.4zm-82.2 9.6c-.4.7-.7 1.5-.9 2.3 1.6-.9 3.2-1.5 5-1.9l-4.1-.4zm13.8-10.9c-.7-.4-1.3-.8-1.9-1.2 0 .4 0 .8.1 1.2.6-.1 1.2-.1 1.8 0zm97.8 58.9c-.4 4.9-2.7 9.5-4.5 14.1-3.7 9.2-5.7 19-7.3 28.8-1.4 8.8-3 18.8-10.5 23.6-2.1 1.3-4.4 2.3-6.8 3-10.8 3.7-21.6 7.5-33 8.8s-23.3.2-33.2-5.5c-2.9-1.5-5.3-3.7-7.2-6.3-2.7-4.2-2.7-9.5-4-14.4-1.1-3.6-2.4-7.1-4-10.5-2.2-5.4-3.9-11-5.6-16.5-1.6-5.1-3.1-10.3-4.7-15.4-.5-1.5-.9-3.1-1.1-4.8-.4 2.6.4 5.2 1.1 7.8 1.6 5.2 3.1 10.3 4.7 15.4 1.7 5.6 3.4 11.1 5.6 16.5 1.6 3.4 2.9 6.9 4 10.5 1.3 4.8 1.3 10.1 4 14.4 1.8 2.7 4.3 4.8 7.2 6.3 9.9 5.7 21.8 6.9 33.2 5.5s22.2-5.1 33-8.8c2.4-.7 4.7-1.7 6.8-3 7.4-4.9 9.1-14.9 10.5-23.6 1.5-9.8 3.6-19.6 7.3-28.8 2.2-5.5 5-11 4.5-16.9v-.2zm-119.7-3.9v-.1c.2-1.8 0-3.5-.5-5.2-.2-1.1-.3-2.2-.4-3.3-.1 2.1 0 4.2.4 6.3.2.8.4 1.6.5 2.3zm3-24.4c.8-1.3 1.6-2.5 2.6-3.7-1.8 1.8-5.2.2-5.9-2.2-.3 1-.3 2 0 3 .5 1.5 1.8 2.6 3.3 2.9z"/><path class="st6" d="M684.1 483.7s3.2 11.5 0 21.5 0-21.5 0-21.5zm13.5 11.7s1.3 14.6-1.7 17.2c-3 2.6 1.7-17.2 1.7-17.2z"/><path d="M199 342.9l101.6-1M199 355.3l101.6-1M199 367.8l101.6-1" fill="none" stroke="#95449a" stroke-miterlimit="10"/></svg>