<svg xmlns="http://www.w3.org/2000/svg" viewBox="0 0 49 49"><path d="M4.1 12.1v5.2c0 .3-.2.5-.5.5h-2c-.3 0-.5-.2-.5-.5L1.2 1c0-.3.2-.5.5-.5h1.8c.3.1.5.2.5.5v7.8l8.2-8c.2-.2.3-.2.6-.2H15c.4 0 .5.3.2.6L8.4 7.9l7.1 9.3c.3.3.1.6-.3.6h-2.5c-.2 0-.4-.1-.6-.3L6.6 9.6l-2.5 2.5zm43 27.1c.3 0 .5.2.5.6-.1 4.6-3.2 8.3-8.3 8.3-4.7 0-8.1-3.7-8.1-9s3.6-9 8.3-9c3.4 0 6.1 1.9 7.2 4.8.1.3 0 .5-.4.5h-1.7c-.3 0-.4-.1-.6-.3-1.1-1.7-2.8-2.6-4.8-2.6-3 0-5.3 2.2-5.3 6.3 0 4.2 2.3 6.7 5.7 6.7 2.3 0 4.3-1.4 4.9-3.9h-3.9c-.3 0-.5-.2-.5-.5v-1.6c0-.3.2-.5.5-.5h6.5v.2z" fill="#f2f2f2"/><path d="M10.1 40.4l-1.6-1.6c-.2-.2-.2-.5 0-.7l30-30c.2-.2.5-.2.7 0l1.6 1.6c.2.2.2.5 0 .7l-30 30c-.2.2-.5.2-.7 0z" fill="#944498" stroke="#944498" stroke-width=".263" stroke-miterlimit="10"/></svg>