<svg xmlns="http://www.w3.org/2000/svg" viewBox="0 0 16 16"><path d="M1.4 4v1.7c0 .1-.1.2-.2.2H.6c-.1 0-.2-.1-.2-.2V.4C.4.3.5.2.6.2h.6c.1 0 .2.1.2.2v2.5L4 .3c.1-.1.1-.1.2-.1H5c.1 0 .2.1.1.2L2.8 2.7l2.3 3c.1.1 0 .2-.1.2h-.8c-.1 0-.1 0-.2-.1L2.2 3.2l-.8.8zm14 8.9c.1 0 .2.1.2.2 0 1.5-1 2.7-2.7 2.7-1.5 0-2.6-1.2-2.6-2.9S11.5 10 13 10c1.1 0 2 .6 2.3 1.6 0 .1 0 .2-.1.2h-.6c-.1 0-.1 0-.2-.1-.4-.6-.9-.8-1.6-.8-1 0-1.7.7-1.7 2.1 0 1.4.7 2.2 1.9 2.2.7 0 1.4-.5 1.6-1.3h-1.3c-.1 0-.2-.1-.2-.2V13c0-.1.1-.2.2-.2l2.1.1c0-.1 0 0 0 0z" fill="#333"/><path d="M3.4 13.2l-.5-.5c-.1-.1-.1-.2 0-.2l9.8-9.8c.1-.1.2-.1.2 0l.5.5c.1.1.1.2 0 .2l-9.8 9.8c-.1.1-.2.1-.2 0z" fill="#944498" stroke="#944498" stroke-width=".086" stroke-miterlimit="10"/></svg>