<?xml version="1.0" encoding="utf-8"?>
<!-- Generator: Adobe Illustrator 21.0.0, SVG Export Plug-In . SVG Version: 6.00 Build 0)  -->
<svg version="1.1" id="Layer_1" xmlns="http://www.w3.org/2000/svg" xmlns:xlink="http://www.w3.org/1999/xlink" x="0px" y="0px"
	 viewBox="0 0 16 16" style="enable-background:new 0 0 16 16;" xml:space="preserve">
<style type="text/css">
	.st0{fill:#333333;}
	.st1{fill:#944498;stroke:#944498;stroke-width:8.572958e-02;stroke-miterlimit:10;}
</style>
<path class="st0" d="M1.4,4v1.7c0,0.1-0.1,0.2-0.2,0.2H0.6c-0.1,0-0.2-0.1-0.2-0.2l0-5.3c0-0.1,0.1-0.2,0.2-0.2h0.6
	c0.1,0,0.2,0.1,0.2,0.2v2.5L4,0.3c0.1-0.1,0.1-0.1,0.2-0.1H5c0.1,0,0.2,0.1,0.1,0.2L2.8,2.7l2.3,3c0.1,0.1,0,0.2-0.1,0.2H4.2
	c-0.1,0-0.1,0-0.2-0.1L2.2,3.2L1.4,4z"/>
<g>
	<path class="st0" d="M15.4,12.9c0.1,0,0.2,0.1,0.2,0.2c0,1.5-1,2.7-2.7,2.7c-1.5,0-2.6-1.2-2.6-2.9s1.2-2.9,2.7-2.9
		c1.1,0,2,0.6,2.3,1.6c0,0.1,0,0.2-0.1,0.2h-0.6c-0.1,0-0.1,0-0.2-0.1c-0.4-0.6-0.9-0.8-1.6-0.8c-1,0-1.7,0.7-1.7,2.1
		c0,1.4,0.7,2.2,1.9,2.2c0.7,0,1.4-0.5,1.6-1.3h-1.3c-0.1,0-0.2-0.1-0.2-0.2V13c0-0.1,0.1-0.2,0.2-0.2L15.4,12.9
		C15.4,12.8,15.4,12.9,15.4,12.9z"/>
</g>
<path class="st1" d="M3.4,13.2l-0.5-0.5c-0.1-0.1-0.1-0.2,0-0.2l9.8-9.8c0.1-0.1,0.2-0.1,0.2,0l0.5,0.5c0.1,0.1,0.1,0.2,0,0.2
	l-9.8,9.8C3.5,13.3,3.4,13.3,3.4,13.2z"/>
</svg>
