<?xml version="1.0" encoding="utf-8"?>
<!-- Generator: Adobe Illustrator 21.0.0, SVG Export Plug-In . SVG Version: 6.00 Build 0)  -->
<svg version="1.1" id="Layer_1" xmlns="http://www.w3.org/2000/svg" xmlns:xlink="http://www.w3.org/1999/xlink" x="0px" y="0px"
	 viewBox="0 0 49 49" style="enable-background:new 0 0 49 49;" xml:space="preserve">
<style type="text/css">
	.st0{fill:#F2F2F2;}
	.st1{fill:#944498;stroke:#944498;stroke-width:0.2631;stroke-miterlimit:10;}
</style>
<g>
	<path class="st0" d="M4.1,12.1v5.2c0,0.3-0.2,0.5-0.5,0.5h-2c-0.3,0-0.5-0.2-0.5-0.5L1.2,1c0-0.3,0.2-0.5,0.5-0.5h1.8
		C3.8,0.6,4,0.7,4,1v7.8l8.2-8c0.2-0.2,0.3-0.2,0.6-0.2H15c0.4,0,0.5,0.3,0.2,0.6L8.4,7.9l7.1,9.3c0.3,0.3,0.1,0.6-0.3,0.6h-2.5
		c-0.2,0-0.4-0.1-0.6-0.3L6.6,9.6L4.1,12.1z"/>
</g>
<g>
	<path class="st0" d="M47.1,39.2c0.3,0,0.5,0.2,0.5,0.6c-0.1,4.6-3.2,8.3-8.3,8.3c-4.7,0-8.1-3.7-8.1-9s3.6-9,8.3-9
		c3.4,0,6.1,1.9,7.2,4.8c0.1,0.3,0,0.5-0.4,0.5h-1.7c-0.3,0-0.4-0.1-0.6-0.3c-1.1-1.7-2.8-2.6-4.8-2.6c-3,0-5.3,2.2-5.3,6.3
		c0,4.2,2.3,6.7,5.7,6.7c2.3,0,4.3-1.4,4.9-3.9h-3.9c-0.3,0-0.5-0.2-0.5-0.5v-1.6c0-0.3,0.2-0.5,0.5-0.5h6.5V39.2z"/>
</g>
<path class="st1" d="M10.1,40.4l-1.6-1.6c-0.2-0.2-0.2-0.5,0-0.7l30-30c0.2-0.2,0.5-0.2,0.7,0l1.6,1.6c0.2,0.2,0.2,0.5,0,0.7l-30,30
	C10.6,40.6,10.3,40.6,10.1,40.4z"/>
</svg>
